<?xml version="1.0" encoding="UTF-8"?>
<svg id="Layer_2" data-name="Layer 2" xmlns="http://www.w3.org/2000/svg" xmlns:xlink="http://www.w3.org/1999/xlink" viewBox="0 0 2380 1080">
  <defs>
    <style>
      .cls-1 {
        fill: url(#linear-gradient-38);
      }

      .cls-1, .cls-2, .cls-3, .cls-4, .cls-5, .cls-6, .cls-7, .cls-8, .cls-9, .cls-10, .cls-11, .cls-12, .cls-13, .cls-14, .cls-15, .cls-16, .cls-17, .cls-18, .cls-19, .cls-20, .cls-21, .cls-22, .cls-23, .cls-24, .cls-25, .cls-26, .cls-27, .cls-28, .cls-29, .cls-30, .cls-31, .cls-32, .cls-33, .cls-34, .cls-35, .cls-36, .cls-37, .cls-38, .cls-39, .cls-40, .cls-41, .cls-42, .cls-43, .cls-44, .cls-45, .cls-46, .cls-47, .cls-48, .cls-49, .cls-50, .cls-51, .cls-52, .cls-53, .cls-54, .cls-55, .cls-56, .cls-57, .cls-58, .cls-59, .cls-60, .cls-61, .cls-62, .cls-63, .cls-64, .cls-65, .cls-66, .cls-67, .cls-68, .cls-69 {
        stroke-width: 0px;
      }

      .cls-2 {
        fill: url(#linear-gradient-12);
      }

      .cls-3 {
        fill: url(#linear-gradient-17);
      }

      .cls-4 {
        fill: url(#radial-gradient-16);
      }

      .cls-5 {
        fill: url(#linear-gradient-19);
      }

      .cls-6 {
        fill: url(#linear-gradient-33);
      }

      .cls-7 {
        fill: url(#linear-gradient);
      }

      .cls-8 {
        fill: #302352;
        filter: url(#outer-glow-2);
      }

      .cls-9 {
        fill: url(#linear-gradient-21);
      }

      .cls-10 {
        fill: url(#linear-gradient-6);
      }

      .cls-11 {
        fill: url(#radial-gradient-8);
      }

      .cls-70 {
        filter: url(#outer-glow-3);
      }

      .cls-70, .cls-71 {
        fill: none;
        stroke: #31bdff;
        stroke-miterlimit: 10;
        stroke-width: 4px;
      }

      .cls-12 {
        fill: url(#linear-gradient-42);
      }

      .cls-13 {
        fill: url(#linear-gradient-15);
      }

      .cls-14 {
        fill: url(#radial-gradient-13);
      }

      .cls-15 {
        fill: url(#radial-gradient-12);
      }

      .cls-16 {
        fill: url(#linear-gradient-11);
      }

      .cls-17 {
        fill: url(#linear-gradient-5);
      }

      .cls-18 {
        fill: #261d39;
      }

      .cls-19 {
        fill: url(#linear-gradient-31);
      }

      .cls-20 {
        fill: url(#linear-gradient-34);
      }

      .cls-21 {
        fill: url(#linear-gradient-41);
      }

      .cls-22 {
        fill: url(#linear-gradient-40);
      }

      .cls-23 {
        fill: url(#linear-gradient-13);
      }

      .cls-24 {
        fill: url(#linear-gradient-23);
      }

      .cls-25 {
        fill: url(#linear-gradient-25);
      }

      .cls-26 {
        fill: url(#linear-gradient-43);
      }

      .cls-27 {
        fill: url(#linear-gradient-16);
      }

      .cls-28 {
        fill: url(#linear-gradient-22);
      }

      .cls-71 {
        filter: url(#outer-glow-1);
      }

      .cls-29 {
        fill: url(#linear-gradient-35);
      }

      .cls-30 {
        fill: url(#linear-gradient-50);
      }

      .cls-31 {
        fill: url(#linear-gradient-32);
      }

      .cls-32 {
        fill: url(#linear-gradient-20);
      }

      .cls-33 {
        fill: url(#linear-gradient-14);
      }

      .cls-34 {
        fill: url(#linear-gradient-2);
      }

      .cls-35 {
        fill: url(#linear-gradient-45);
      }

      .cls-36 {
        fill: url(#linear-gradient-7);
      }

      .cls-37 {
        fill: url(#radial-gradient-2);
      }

      .cls-38 {
        fill: url(#linear-gradient-39);
      }

      .cls-39 {
        fill: url(#radial-gradient-7);
      }

      .cls-40 {
        fill: url(#linear-gradient-3);
      }

      .cls-72 {
        opacity: .49;
      }

      .cls-41 {
        fill: url(#radial-gradient-5);
      }

      .cls-42 {
        fill: url(#linear-gradient-9);
      }

      .cls-43 {
        fill: url(#linear-gradient-27);
      }

      .cls-44 {
        fill: url(#radial-gradient);
      }

      .cls-45 {
        fill: url(#linear-gradient-36);
      }

      .cls-46 {
        fill: url(#linear-gradient-48);
      }

      .cls-47 {
        fill: url(#radial-gradient-14);
      }

      .cls-48 {
        fill: url(#linear-gradient-49);
      }

      .cls-49 {
        fill: url(#linear-gradient-8);
      }

      .cls-50 {
        fill: url(#linear-gradient-47);
      }

      .cls-51 {
        fill: url(#radial-gradient-10);
      }

      .cls-52 {
        fill: url(#linear-gradient-24);
      }

      .cls-53 {
        fill: url(#linear-gradient-26);
      }

      .cls-54 {
        fill: url(#linear-gradient-18);
      }

      .cls-55 {
        fill: url(#linear-gradient-30);
      }

      .cls-56 {
        fill: #fff;
      }

      .cls-57 {
        fill: url(#linear-gradient-44);
      }

      .cls-58 {
        fill: url(#linear-gradient-29);
      }

      .cls-59 {
        fill: url(#linear-gradient-46);
      }

      .cls-60 {
        fill: url(#radial-gradient-6);
      }

      .cls-61 {
        fill: url(#linear-gradient-28);
      }

      .cls-62 {
        fill: url(#linear-gradient-10);
      }

      .cls-63 {
        fill: url(#radial-gradient-15);
      }

      .cls-64 {
        fill: url(#radial-gradient-9);
      }

      .cls-65 {
        fill: url(#radial-gradient-3);
      }

      .cls-66 {
        fill: url(#radial-gradient-11);
      }

      .cls-67 {
        fill: url(#linear-gradient-4);
      }

      .cls-68 {
        fill: url(#linear-gradient-37);
      }

      .cls-69 {
        fill: url(#radial-gradient-4);
      }
    </style>
    <linearGradient id="linear-gradient" x1="1190" y1="1080" x2="1190" y2="0" gradientUnits="userSpaceOnUse">
      <stop offset="0" stop-color="#342863"/>
      <stop offset="1" stop-color="#171128"/>
    </linearGradient>
    <linearGradient id="linear-gradient-2" x1="1717.33" y1="700.31" x2="1719.4" y2="1072.17" gradientUnits="userSpaceOnUse">
      <stop offset="0" stop-color="#603693"/>
      <stop offset="1" stop-color="#361f57"/>
    </linearGradient>
    <linearGradient id="linear-gradient-3" x1="880.37" y1="745.5" x2="740.11" y2="1178.78" gradientUnits="userSpaceOnUse">
      <stop offset="0" stop-color="#663695"/>
      <stop offset="1" stop-color="#381d53"/>
    </linearGradient>
    <linearGradient id="linear-gradient-4" x1="1686" y1="244" x2="1873" y2="244" gradientUnits="userSpaceOnUse">
      <stop offset="0" stop-color="#f49b84" stop-opacity="0"/>
      <stop offset=".75" stop-color="#ed5a57" stop-opacity=".75"/>
      <stop offset=".85" stop-color="#f07259"/>
      <stop offset="1" stop-color="#fff"/>
    </linearGradient>
    <filter id="outer-glow-1" filterUnits="userSpaceOnUse">
      <feOffset dx="0" dy="0"/>
      <feGaussianBlur result="blur" stdDeviation="7"/>
      <feFlood flood-color="#3cf" flood-opacity="1"/>
      <feComposite in2="blur" operator="in"/>
      <feComposite in="SourceGraphic"/>
    </filter>
    <filter id="outer-glow-2" filterUnits="userSpaceOnUse">
      <feOffset dx="0" dy="0"/>
      <feGaussianBlur result="blur-2" stdDeviation="7"/>
      <feFlood flood-color="aqua" flood-opacity="1"/>
      <feComposite in2="blur-2" operator="in"/>
      <feComposite in="SourceGraphic"/>
    </filter>
    <filter id="outer-glow-3" filterUnits="userSpaceOnUse">
      <feOffset dx="0" dy="0"/>
      <feGaussianBlur result="blur-3" stdDeviation="7"/>
      <feFlood flood-color="#3cf" flood-opacity="1"/>
      <feComposite in2="blur-3" operator="in"/>
      <feComposite in="SourceGraphic"/>
    </filter>
    <linearGradient id="linear-gradient-5" x1="2014.86" y1="838.39" x2="2019.03" y2="838.39" gradientUnits="userSpaceOnUse">
      <stop offset="0" stop-color="#140a2e"/>
      <stop offset=".79" stop-color="#2d263f"/>
    </linearGradient>
    <linearGradient id="linear-gradient-6" x1="2003.84" y1="815.72" x2="2029.45" y2="809.26" gradientUnits="userSpaceOnUse">
      <stop offset="0" stop-color="#191134"/>
      <stop offset=".79" stop-color="#342863"/>
      <stop offset="1" stop-color="#7e8697"/>
    </linearGradient>
    <linearGradient id="linear-gradient-7" x1="1828.16" y1="740.06" x2="1775.71" y2="758.19" gradientTransform="translate(305.53 -502.94) rotate(17.35)" gradientUnits="userSpaceOnUse">
      <stop offset="0" stop-color="#261d39" stop-opacity="0"/>
      <stop offset=".78" stop-color="#261d39"/>
      <stop offset="1" stop-color="#271e39"/>
    </linearGradient>
    <linearGradient id="linear-gradient-8" x1="2143.5" y1="812.26" x2="2091.04" y2="830.39" gradientTransform="translate(341.42 -593.71) rotate(17.35)" xlink:href="#linear-gradient-7"/>
    <linearGradient id="linear-gradient-9" x1="1995.82" y1="934.47" x2="1943.36" y2="952.6" gradientTransform="translate(371.15 -544.09) rotate(17.35)" xlink:href="#linear-gradient-7"/>
    <linearGradient id="linear-gradient-10" x1="1703.49" y1="910" x2="1656.71" y2="926.16" gradientTransform="matrix(1,0,0,1,0,0)" xlink:href="#linear-gradient-7"/>
    <linearGradient id="linear-gradient-11" x1="1730.17" y1="889.55" x2="1677.71" y2="907.68" gradientTransform="translate(345.66 -466.91) rotate(17.35)" xlink:href="#linear-gradient-7"/>
    <linearGradient id="linear-gradient-12" x1="1501.91" y1="793.37" x2="1449.46" y2="811.49" gradientTransform="translate(306.58 -403.2) rotate(17.35)" xlink:href="#linear-gradient-7"/>
    <linearGradient id="linear-gradient-13" x1="808.46" y1="913.84" x2="767.81" y2="959.51" gradientUnits="userSpaceOnUse">
      <stop offset="0" stop-color="#261d39" stop-opacity="0"/>
      <stop offset=".78" stop-color="#261d39"/>
      <stop offset="1" stop-color="#271e39"/>
    </linearGradient>
    <linearGradient id="linear-gradient-14" x1="356.88" y1="924.34" x2="288.98" y2="947.8" gradientTransform="translate(294 -53.17) rotate(17.35)" xlink:href="#linear-gradient-13"/>
    <linearGradient id="linear-gradient-15" x1="565.9" y1="820.96" x2="498.01" y2="844.42" gradientTransform="translate(272.68 -120.22) rotate(17.35)" xlink:href="#linear-gradient-7"/>
    <radialGradient id="radial-gradient" cx="591.58" cy="765.43" fx="591.58" fy="765.43" r="82.38" gradientUnits="userSpaceOnUse">
      <stop offset=".64" stop-color="#ec2b7f"/>
      <stop offset="1" stop-color="#811f60"/>
    </radialGradient>
    <radialGradient id="radial-gradient-2" cx="1549.36" cy="746.85" fx="1549.36" fy="746.85" r="92.32" gradientUnits="userSpaceOnUse">
      <stop offset=".64" stop-color="#6f9"/>
      <stop offset="1" stop-color="#1d6043"/>
    </radialGradient>
    <radialGradient id="radial-gradient-3" cx="2163.25" cy="767.83" fx="2163.25" fy="767.83" r="62.73" gradientUnits="userSpaceOnUse">
      <stop offset=".64" stop-color="#ffd587"/>
      <stop offset="1" stop-color="#d3745d"/>
    </radialGradient>
    <radialGradient id="radial-gradient-4" cx="2017.25" cy="895.48" fx="2017.25" fy="895.48" r="65.27" gradientUnits="userSpaceOnUse">
      <stop offset=".64" stop-color="#31bdff"/>
      <stop offset="1" stop-color="#1b546d"/>
    </radialGradient>
    <radialGradient id="radial-gradient-5" cx="876.24" cy="831.13" fx="876.24" fy="831.13" r="98.32" xlink:href="#radial-gradient"/>
    <radialGradient id="radial-gradient-6" cx="881.51" cy="858.22" fx="881.51" fy="858.22" r="115.63" xlink:href="#radial-gradient-3"/>
    <radialGradient id="radial-gradient-7" cx="826.07" cy="858.54" fx="826.07" fy="858.54" r="99.04" xlink:href="#radial-gradient-4"/>
    <radialGradient id="radial-gradient-8" cx="863.99" cy="871.07" fx="863.99" fy="871.07" r="80.25" xlink:href="#radial-gradient-4"/>
    <radialGradient id="radial-gradient-9" cx="858.55" cy="866.71" fx="858.55" fy="866.71" r="104.57" xlink:href="#radial-gradient-2"/>
    <radialGradient id="radial-gradient-10" cx="883.69" cy="885.14" fx="883.69" fy="885.14" r="96.43" xlink:href="#radial-gradient-3"/>
    <radialGradient id="radial-gradient-11" cx="413.32" cy="866.61" fx="413.32" fy="866.61" r="109.71" xlink:href="#radial-gradient-2"/>
    <radialGradient id="radial-gradient-12" cx="1764.03" cy="837.9" fx="1764.03" fy="837.9" r="85.15" xlink:href="#radial-gradient-2"/>
    <radialGradient id="radial-gradient-13" cx="1734.82" cy="861.02" fx="1734.82" fy="861.02" r="64" xlink:href="#radial-gradient-3"/>
    <radialGradient id="radial-gradient-14" cx="1716.55" cy="877.91" fx="1716.55" fy="877.91" r="60.18" xlink:href="#radial-gradient"/>
    <linearGradient id="linear-gradient-16" x1="386.95" y1="773.88" x2="423" y2="766.36" xlink:href="#linear-gradient-6"/>
    <linearGradient id="linear-gradient-17" x1="406.35" y1="819.87" x2="413.84" y2="819.87" xlink:href="#linear-gradient-5"/>
    <linearGradient id="linear-gradient-18" x1="414.18" y1="792.1" x2="445.26" y2="785.61" xlink:href="#linear-gradient-6"/>
    <linearGradient id="linear-gradient-19" x1="430.91" y1="831.75" x2="437.37" y2="831.75" xlink:href="#linear-gradient-5"/>
    <linearGradient id="linear-gradient-20" x1="392.59" y1="805.97" x2="418.47" y2="800.56" xlink:href="#linear-gradient-6"/>
    <linearGradient id="linear-gradient-21" x1="406.52" y1="838.98" x2="411.9" y2="838.98" xlink:href="#linear-gradient-5"/>
    <linearGradient id="linear-gradient-22" x1="324.59" y1="779.85" x2="352.75" y2="773.97" xlink:href="#linear-gradient-6"/>
    <linearGradient id="linear-gradient-23" x1="339.74" y1="815.76" x2="345.6" y2="815.76" xlink:href="#linear-gradient-5"/>
    <linearGradient id="linear-gradient-24" x1="302.19" y1="800.78" x2="328.07" y2="795.38" xlink:href="#linear-gradient-6"/>
    <linearGradient id="linear-gradient-25" x1="316.12" y1="833.8" x2="321.5" y2="833.8" xlink:href="#linear-gradient-5"/>
    <linearGradient id="linear-gradient-26" x1="1373.92" y1="956.45" x2="1405.01" y2="949.96" xlink:href="#linear-gradient-6"/>
    <linearGradient id="linear-gradient-27" x1="1390.65" y1="996.1" x2="1397.11" y2="996.1" xlink:href="#linear-gradient-5"/>
    <linearGradient id="linear-gradient-28" x1="1398.15" y1="969.3" x2="1426.03" y2="963.48" xlink:href="#linear-gradient-6"/>
    <linearGradient id="linear-gradient-29" x1="1413.15" y1="1004.86" x2="1418.95" y2="1004.86" xlink:href="#linear-gradient-5"/>
    <linearGradient id="linear-gradient-30" x1="1323.15" y1="978.73" x2="1349.44" y2="973.24" xlink:href="#linear-gradient-6"/>
    <linearGradient id="linear-gradient-31" x1="1337.3" y1="1012.26" x2="1342.76" y2="1012.26" xlink:href="#linear-gradient-5"/>
    <linearGradient id="linear-gradient-32" x1="621.57" y1="966.67" x2="649.45" y2="960.85" xlink:href="#linear-gradient-6"/>
    <linearGradient id="linear-gradient-33" x1="636.57" y1="1002.23" x2="642.37" y2="1002.23" xlink:href="#linear-gradient-5"/>
    <linearGradient id="linear-gradient-34" x1="646.53" y1="971.92" x2="676.22" y2="965.72" xlink:href="#linear-gradient-6"/>
    <linearGradient id="linear-gradient-35" x1="662.51" y1="1009.79" x2="668.68" y2="1009.79" xlink:href="#linear-gradient-5"/>
    <linearGradient id="linear-gradient-36" x1="1116.99" y1="981.58" x2="1049.1" y2="1005.04" gradientTransform="translate(345.67 -277.28) rotate(17.35)" xlink:href="#linear-gradient-7"/>
    <radialGradient id="radial-gradient-15" cx="1185.38" cy="900.04" fx="1185.38" fy="900.04" r="137.07" xlink:href="#radial-gradient-4"/>
    <radialGradient id="radial-gradient-16" cx="1851.04" cy="696.59" fx="1851.04" fy="696.59" r="67.57" gradientUnits="userSpaceOnUse">
      <stop offset=".64" stop-color="#fff"/>
      <stop offset="1" stop-color="#a7a9ac"/>
    </radialGradient>
    <linearGradient id="linear-gradient-37" x1="1609.78" y1="761.46" x2="1613.44" y2="761.46" xlink:href="#linear-gradient-5"/>
    <linearGradient id="linear-gradient-38" x1="1600.1" y1="741.54" x2="1622.6" y2="735.86" xlink:href="#linear-gradient-6"/>
    <linearGradient id="linear-gradient-39" x1="1628.64" y1="764.22" x2="1633.21" y2="764.22" xlink:href="#linear-gradient-5"/>
    <linearGradient id="linear-gradient-40" x1="1616.57" y1="739.38" x2="1644.63" y2="732.29" xlink:href="#linear-gradient-6"/>
    <linearGradient id="linear-gradient-41" x1="1975.16" y1="826.59" x2="1979.72" y2="826.59" xlink:href="#linear-gradient-5"/>
    <linearGradient id="linear-gradient-42" x1="1963.09" y1="801.75" x2="1991.14" y2="794.67" xlink:href="#linear-gradient-6"/>
    <linearGradient id="linear-gradient-43" x1="1994.45" y1="858.5" x2="1999.65" y2="858.5" xlink:href="#linear-gradient-5"/>
    <linearGradient id="linear-gradient-44" x1="1980.7" y1="830.21" x2="2012.65" y2="822.14" xlink:href="#linear-gradient-6"/>
    <linearGradient id="linear-gradient-45" x1="1960.72" y1="849.54" x2="1964.21" y2="849.54" xlink:href="#linear-gradient-5"/>
    <linearGradient id="linear-gradient-46" x1="1951.5" y1="830.56" x2="1972.94" y2="825.14" xlink:href="#linear-gradient-6"/>
    <linearGradient id="linear-gradient-47" x1="1948.72" y1="815.54" x2="1952.21" y2="815.54" xlink:href="#linear-gradient-5"/>
    <linearGradient id="linear-gradient-48" x1="1939.5" y1="796.56" x2="1960.94" y2="791.14" xlink:href="#linear-gradient-6"/>
    <linearGradient id="linear-gradient-49" x1="1819.24" y1="962.63" x2="1824.18" y2="962.63" xlink:href="#linear-gradient-5"/>
    <linearGradient id="linear-gradient-50" x1="1806.21" y1="935.81" x2="1836.51" y2="928.16" xlink:href="#linear-gradient-6"/>
  </defs>
  <g id="Background">
    <rect class="cls-7" width="2380" height="1080"/>
  </g>
  <g id="Landscape_Background" data-name="Landscape Background">
    <path class="cls-34" d="M2380,741c-153.56-30.32-372.35-58.77-634.04-45-296.66,15.61-533.33,79.44-688.96,133v251h1323v-339Z"/>
    <path class="cls-40" d="M0,759.28c204.99-30.04,556.78-56.51,968.54,43.04,299.87,72.49,528.44,186.89,679.46,277.69H0v-320.72Z"/>
    <rect class="cls-67" x="1686" y="240" width="187" height="8" rx="4" ry="4" transform="translate(391.49 -895.99) rotate(31.59)"/>
    <path class="cls-71" d="M544.06,305.4c-1.65-4.4,30.35-20.45,71.46-35.86s75.78-24.33,77.43-19.94"/>
    <circle class="cls-8" cx="619.5" cy="275.5" r="15.5"/>
    <path class="cls-70" d="M692.94,249.6c1.65,4.4-30.35,20.45-71.46,35.86-41.11,15.41-75.78,24.33-77.43,19.94"/>
  </g>
  <g id="Landscape_Foreground" data-name="Landscape Foreground">
    <g>
      <path class="cls-18" d="M1993.38,848.62c6.98-3.24,14.7-5.31,18.82-5.18l3.9-1.81,2.75.94-3.9,1.81c.95,1.6-3.03,4.96-10,8.2-8.19,3.8-17.42,6-20.62,4.9s.85-5.07,9.05-8.87Z"/>
      <g>
        <rect class="cls-17" x="2014.86" y="834.23" width="4.17" height="8.34"/>
        <ellipse class="cls-10" cx="2016.95" cy="812.41" rx="8.77" ry="24.41"/>
      </g>
    </g>
    <ellipse class="cls-36" cx="1800.6" cy="749.59" rx="16.65" ry="7.92" transform="translate(-141.62 571.18) rotate(-17.35)"/>
    <ellipse class="cls-49" cx="2115.93" cy="821.79" rx="16.65" ry="7.92" transform="translate(-148.8 668.52) rotate(-17.35)"/>
    <ellipse class="cls-42" cx="1968.25" cy="944" rx="16.65" ry="7.92" transform="translate(-191.97 630.03) rotate(-17.35)"/>
    <path class="cls-62" d="M1689.58,919.44c.9,4.14-5.07,9.53-13.61,12.2-8.78,2.74-16.95,1.58-18.26-2.6-1.27-4.07,4.47-9.51,12.91-12.32-.9-4.13,5.06-9.53,13.62-12.2,8.77-2.75,16.95-1.58,18.25,2.59,1.28,4.08-4.47,9.53-12.91,12.33Z"/>
    <ellipse class="cls-16" cx="1702.6" cy="899.08" rx="16.65" ry="7.92" transform="translate(-190.67 548.75) rotate(-17.35)"/>
    <ellipse class="cls-2" cx="1474.35" cy="802.89" rx="16.65" ry="7.92" transform="translate(-172.37 476.29) rotate(-17.35)"/>
    <path class="cls-23" d="M829.69,952.37c1.69,5.41-6.15,12.67-17.51,16.22-11.35,3.55-21.93,2.04-23.62-3.36-1.28-4.1,2.91-9.26,9.96-13.06-1.47-.23-2.79-.61-3.91-1.11-2.99,2.17-6.87,4.11-11.28,5.49-11.36,3.55-21.93,2.05-23.62-3.36-1.26-4.04,2.8-9.11,9.68-12.9-2.03-.24-3.8-.72-5.22-1.44-3.15,2.65-7.62,5.07-12.84,6.7-11.36,3.55-21.93,2.05-23.62-3.36-1.69-5.4,6.15-12.66,17.5-16.21,8.1-2.53,15.8-2.5,20.17-.3,3.15-2.65,7.62-5.07,12.83-6.7,11.36-3.55,21.94-2.05,23.63,3.36,1.26,4.04-2.8,9.11-9.68,12.9,1.82.22,3.44.63,4.78,1.23,3-2.18,6.87-4.11,11.27-5.49,11.36-3.55,21.94-2.05,23.63,3.36,1.28,4.09-2.91,9.25-9.96,13.05,4.08.66,6.99,2.36,7.81,4.98Z"/>
    <ellipse class="cls-33" cx="321.2" cy="936.66" rx="21.55" ry="10.25" transform="translate(-264.76 138.44) rotate(-17.35)"/>
    <ellipse class="cls-13" cx="530.23" cy="833.29" rx="21.55" ry="10.25" transform="translate(-224.41 196.08) rotate(-17.35)"/>
    <circle class="cls-44" cx="544.5" cy="812.5" r="17.5"/>
    <circle class="cls-37" cx="1484.5" cy="787.5" r="13.5"/>
    <circle class="cls-65" cx="2129.22" cy="806.29" r="13.13"/>
    <circle class="cls-69" cx="1979.87" cy="928.87" r="13.13"/>
    <circle class="cls-41" cx="822.5" cy="892.5" r="17.5"/>
    <circle class="cls-60" cx="794.5" cy="904.5" r="17.5"/>
    <circle class="cls-39" cx="765.5" cy="915.5" r="17.5"/>
    <circle class="cls-11" cx="823.5" cy="916.5" r="17.5"/>
    <circle class="cls-64" cx="794.5" cy="926.5" r="17.5"/>
    <circle class="cls-51" cx="824.5" cy="938.5" r="17.5"/>
    <circle class="cls-66" cx="335.5" cy="916.5" r="17.5"/>
    <circle class="cls-15" cx="1713" cy="884" r="13"/>
    <circle class="cls-14" cx="1699.07" cy="896.3" r="13.13"/>
    <circle class="cls-47" cx="1683.98" cy="909.55" r="13.13"/>
    <g>
      <polygon class="cls-18" points="387.59 825.75 399.42 829.12 408.17 825.59 413.78 827.19 405.03 830.73 417.71 834.35 349.71 851.43 387.59 825.75"/>
      <g>
        <polygon class="cls-27" points="429.65 812.38 389.38 812.38 409.52 721.76 409.52 721.76 429.65 812.38"/>
        <rect class="cls-3" x="406.35" y="812.38" width="7.49" height="14.99"/>
      </g>
    </g>
    <g>
      <polygon class="cls-18" points="414.73 836.82 424.93 839.73 432.48 836.68 437.31 838.06 429.77 841.11 440.7 844.23 382.07 858.96 414.73 836.82"/>
      <g>
        <polygon class="cls-54" points="451 825.29 416.27 825.29 433.64 747.16 433.64 747.16 451 825.29"/>
        <rect class="cls-5" x="430.91" y="825.29" width="6.46" height="12.92"/>
      </g>
    </g>
    <g>
      <polygon class="cls-18" points="393.05 843.2 401.54 845.62 407.83 843.08 411.85 844.23 405.57 846.77 414.68 849.37 365.86 861.63 393.05 843.2"/>
      <g>
        <polygon class="cls-32" points="423.25 833.6 394.34 833.6 408.79 768.55 408.79 768.55 423.25 833.6"/>
        <rect class="cls-9" x="406.52" y="833.6" width="5.38" height="10.76"/>
      </g>
    </g>
    <g>
      <polygon class="cls-18" points="325.09 820.35 334.33 822.99 341.17 820.23 345.55 821.48 338.71 824.24 348.62 827.07 295.51 840.41 325.09 820.35"/>
      <g>
        <polygon class="cls-28" points="357.95 809.91 326.49 809.91 342.22 739.14 342.22 739.14 357.95 809.91"/>
        <rect class="cls-24" x="339.74" y="809.91" width="5.85" height="11.7"/>
      </g>
    </g>
    <g>
      <polygon class="cls-18" points="302.65 838.01 311.14 840.44 317.43 837.9 321.45 839.05 315.17 841.59 324.28 844.19 275.46 856.45 302.65 838.01"/>
      <g>
        <polygon class="cls-52" points="332.85 828.42 303.93 828.42 318.39 763.36 318.39 763.36 332.85 828.42"/>
        <rect class="cls-25" x="316.12" y="828.42" width="5.38" height="10.76"/>
      </g>
    </g>
    <g>
      <polygon class="cls-18" points="1374.48 1001.16 1384.67 1004.07 1392.22 1001.03 1397.06 1002.41 1389.51 1005.46 1400.45 1008.58 1341.81 1023.31 1374.48 1001.16"/>
      <g>
        <polygon class="cls-53" points="1410.74 989.64 1376.02 989.64 1393.38 911.5 1393.38 911.5 1410.74 989.64"/>
        <rect class="cls-43" x="1390.65" y="989.64" width="6.46" height="12.92"/>
      </g>
    </g>
    <g>
      <polygon class="cls-18" points="1398.65 1009.4 1407.79 1012.02 1414.56 1009.28 1418.9 1010.52 1412.13 1013.25 1421.94 1016.06 1369.36 1029.26 1398.65 1009.4"/>
      <g>
        <polygon class="cls-61" points="1431.17 999.07 1400.03 999.07 1415.6 929 1415.6 929 1431.17 999.07"/>
        <rect class="cls-58" x="1413.15" y="999.07" width="5.79" height="11.59"/>
      </g>
    </g>
    <g>
      <polygon class="cls-18" points="1323.62 1016.54 1332.24 1019 1338.63 1016.42 1342.72 1017.59 1336.33 1020.17 1345.58 1022.81 1296 1035.26 1323.62 1016.54"/>
      <g>
        <polygon class="cls-55" points="1354.29 1006.79 1324.92 1006.79 1339.61 940.72 1339.61 940.72 1354.29 1006.79"/>
        <rect class="cls-19" x="1337.3" y="1006.79" width="5.46" height="10.93"/>
      </g>
    </g>
    <g>
      <polygon class="cls-18" points="622.07 1006.77 631.21 1009.38 637.98 1006.65 642.32 1007.89 635.55 1010.62 645.36 1013.42 592.78 1026.63 622.07 1006.77"/>
      <g>
        <polygon class="cls-31" points="654.59 996.43 623.45 996.43 639.02 926.36 639.02 926.36 654.59 996.43"/>
        <rect class="cls-6" x="636.57" y="996.43" width="5.79" height="11.59"/>
      </g>
    </g>
    <g>
      <polygon class="cls-18" points="647.06 1014.63 656.8 1017.41 664.01 1014.5 668.63 1015.82 661.42 1018.73 671.86 1021.71 615.87 1035.77 647.06 1014.63"/>
      <g>
        <polygon class="cls-20" points="681.7 1003.62 648.53 1003.62 665.11 929 665.11 929 681.7 1003.62"/>
        <rect class="cls-29" x="662.51" y="1003.62" width="6.17" height="12.34"/>
      </g>
    </g>
    <ellipse class="cls-45" cx="1081.31" cy="993.9" rx="21.55" ry="10.25" transform="translate(-247.23 367.76) rotate(-17.35)"/>
    <circle class="cls-63" cx="1098.5" cy="973.5" r="17.5"/>
    <circle class="cls-4" cx="1811.5" cy="733.5" r="13.5"/>
    <g>
      <path class="cls-18" d="M1590.91,770.44c6.13-2.85,12.92-4.67,16.54-4.55l3.43-1.59,2.42.83-3.43,1.59c.83,1.41-2.66,4.36-8.79,7.21-7.2,3.34-15.3,5.27-18.12,4.31s.75-4.45,7.95-7.79Z"/>
      <g>
        <rect class="cls-68" x="1609.78" y="757.79" width="3.66" height="7.32"/>
        <ellipse class="cls-1" cx="1611.61" cy="738.63" rx="7.71" ry="21.45"/>
      </g>
    </g>
    <g>
      <path class="cls-18" d="M1605.11,775.42c7.64-3.55,16.11-5.82,20.62-5.67l4.28-1.99,3.02,1.03-4.28,1.99c1.04,1.76-3.32,5.44-10.96,8.99-8.98,4.17-19.09,6.57-22.59,5.37-3.5-1.2.93-5.55,9.91-9.72Z"/>
      <g>
        <rect class="cls-38" x="1628.64" y="759.65" width="4.57" height="9.13"/>
        <ellipse class="cls-22" cx="1630.93" cy="735.75" rx="9.61" ry="26.75"/>
      </g>
    </g>
    <g>
      <path class="cls-18" d="M1951.62,837.79c7.64-3.55,16.11-5.82,20.62-5.67l4.28-1.99,3.02,1.03-4.28,1.99c1.04,1.76-3.32,5.44-10.96,8.99-8.98,4.17-19.09,6.57-22.59,5.37-3.5-1.2.93-5.55,9.91-9.72Z"/>
      <g>
        <rect class="cls-21" x="1975.16" y="822.02" width="4.57" height="9.13"/>
        <ellipse class="cls-12" cx="1977.44" cy="798.12" rx="9.61" ry="26.75"/>
      </g>
    </g>
    <g>
      <path class="cls-18" d="M1967.65,871.25c8.7-4.04,18.35-6.63,23.49-6.46l4.87-2.26,3.43,1.18-4.87,2.26c1.18,2-3.78,6.19-12.48,10.23-10.23,4.75-21.73,7.48-25.73,6.11-3.99-1.37,1.06-6.32,11.29-11.07Z"/>
      <g>
        <rect class="cls-26" x="1994.45" y="853.3" width="5.2" height="10.4"/>
        <ellipse class="cls-57" cx="1997.05" cy="826.08" rx="10.95" ry="30.46"/>
      </g>
    </g>
    <g>
      <path class="cls-18" d="M1942.73,858.11c5.84-2.71,12.31-4.45,15.76-4.33l3.27-1.52,2.3.79-3.27,1.52c.79,1.34-2.54,4.16-8.38,6.87-6.86,3.19-14.59,5.02-17.27,4.1s.71-4.24,7.58-7.43Z"/>
      <g>
        <rect class="cls-35" x="1960.72" y="846.05" width="3.49" height="6.98"/>
        <ellipse class="cls-59" cx="1962.47" cy="827.79" rx="7.35" ry="20.45"/>
      </g>
    </g>
    <g>
      <path class="cls-18" d="M1930.73,824.11c5.84-2.71,12.31-4.45,15.76-4.33l3.27-1.52,2.3.79-3.27,1.52c.79,1.34-2.54,4.16-8.38,6.87-6.86,3.19-14.59,5.02-17.27,4.1s.71-4.24,7.58-7.43Z"/>
      <g>
        <rect class="cls-50" x="1948.72" y="812.05" width="3.49" height="6.98"/>
        <ellipse class="cls-46" cx="1950.47" cy="793.79" rx="7.35" ry="20.45"/>
      </g>
    </g>
    <g>
      <path class="cls-18" d="M1793.83,974.73c8.25-3.83,17.4-6.28,22.27-6.12l4.62-2.14,3.26,1.12-4.62,2.14c1.12,1.9-3.58,5.87-11.84,9.71-9.7,4.5-20.61,7.1-24.4,5.8s1.01-6,10.7-10.5Z"/>
      <g>
        <rect class="cls-48" x="1819.24" y="957.7" width="4.93" height="9.86"/>
        <ellipse class="cls-30" cx="1821.71" cy="931.89" rx="10.38" ry="28.89"/>
      </g>
    </g>
  </g>
  <g id="Stars_v2" data-name="Stars v2">
    <g class="cls-72">
      <g>
        <circle class="cls-56" cx="2024.6" cy="396.19" r="2.68"/>
        <circle class="cls-56" cx="2037.96" cy="460.26" r="2.66"/>
        <circle class="cls-56" cx="1949.82" cy="520.85" r="2.71"/>
      </g>
    </g>
    <g class="cls-72">
      <g>
        <circle class="cls-56" cx="1982.78" cy="174.71" r="2.64"/>
        <circle class="cls-56" cx="2083.57" cy="217.55" r="2.83"/>
      </g>
    </g>
    <g class="cls-72">
      <g>
        <circle class="cls-56" cx="1669.74" cy="161.92" r="2.52"/>
        <circle class="cls-56" cx="1784.92" cy="117.53" r="2.49"/>
      </g>
    </g>
    <g class="cls-72">
      <g>
        <circle class="cls-56" cx="1390.71" cy="30.3" r="2.36"/>
        <circle class="cls-56" cx="1504.58" cy="77.94" r="2.39"/>
      </g>
    </g>
    <g class="cls-72">
      <circle class="cls-56" cx="1187.18" cy="75.41" r="2.26"/>
    </g>
    <g class="cls-72">
      <g>
        <circle class="cls-56" cx="830.01" cy="71.77" r="2.3"/>
        <circle class="cls-56" cx="908.06" cy="77.53" r="2.45"/>
        <circle class="cls-56" cx="953.55" cy="70.52" r="2.58"/>
      </g>
    </g>
    <g class="cls-72">
      <g>
        <circle class="cls-56" cx="517" cy="67.8" r="2.88"/>
        <circle class="cls-56" cx="626.17" cy="87.38" r="2.86"/>
      </g>
    </g>
    <g class="cls-72">
      <g>
        <circle class="cls-56" cx="432" cy="257.98" r="2.46"/>
        <circle class="cls-56" cx="472.33" cy="192.17" r="2.6"/>
        <circle class="cls-56" cx="368.32" cy="119.48" r="2.92"/>
      </g>
    </g>
    <g class="cls-72">
      <g>
        <circle class="cls-56" cx="470.32" cy="623.24" r="2.8"/>
        <circle class="cls-56" cx="416.37" cy="577.72" r="2.34"/>
        <circle class="cls-56" cx="448.09" cy="465.05" r="2.26"/>
        <circle class="cls-56" cx="320.85" cy="403.26" r="2.34"/>
        <circle class="cls-56" cx="281.4" cy="424.63" r="2.3"/>
      </g>
    </g>
    <g class="cls-72">
      <g>
        <circle class="cls-56" cx="811.59" cy="328.64" r="2.38"/>
        <circle class="cls-56" cx="865.69" cy="411.46" r="2.42"/>
        <circle class="cls-56" cx="767.16" cy="443.66" r="2.94"/>
        <circle class="cls-56" cx="694.72" cy="507.57" r="2.82"/>
        <circle class="cls-56" cx="689.8" cy="611.2" r="2.87"/>
      </g>
    </g>
    <g class="cls-72">
      <circle class="cls-56" cx="300.94" cy="575.82" r="2.92"/>
    </g>
    <g class="cls-72">
      <g>
        <circle class="cls-56" cx="1063.09" cy="571" r="2.29"/>
        <circle class="cls-56" cx="1022.77" cy="536.11" r="2.81"/>
      </g>
    </g>
    <g class="cls-72">
      <g>
        <circle class="cls-56" cx="1642.68" cy="513.15" r="2.89"/>
        <circle class="cls-56" cx="1569.74" cy="601.54" r="2.48"/>
        <circle class="cls-56" cx="1530.79" cy="628.51" r="2.61"/>
      </g>
    </g>
    <g class="cls-72">
      <g>
        <circle class="cls-56" cx="1650" cy="365.58" r="2.43"/>
        <circle class="cls-56" cx="1742.55" cy="405.68" r="2.33"/>
      </g>
    </g>
    <g class="cls-72">
      <circle class="cls-56" cx="2083.66" cy="620.78" r="2.68"/>
    </g>
    <g class="cls-72">
      <g>
        <circle class="cls-56" cx="179.4" cy="222.88" r="2.84"/>
        <circle class="cls-56" cx="267.66" cy="207.21" r="2.34"/>
      </g>
    </g>
    <g class="cls-72">
      <g>
        <circle class="cls-56" cx="146.38" cy="172.54" r="2.35"/>
        <circle class="cls-56" cx="65.92" cy="66.7" r="2.27"/>
      </g>
    </g>
    <g class="cls-72">
      <g>
        <circle class="cls-56" cx="149.17" cy="527.68" r="2.33"/>
        <circle class="cls-56" cx="110.98" cy="443.99" r="2.86"/>
      </g>
    </g>
    <g class="cls-72">
      <g>
        <circle class="cls-56" cx="2307.89" cy="305.82" r="2.32"/>
        <circle class="cls-56" cx="2287.23" cy="227.9" r="2.71"/>
        <circle class="cls-56" cx="2318.97" cy="120.56" r="2.63"/>
      </g>
    </g>
    <g class="cls-72">
      <g>
        <circle class="cls-56" cx="2201.42" cy="418" r="2.75"/>
        <circle class="cls-56" cx="2289.85" cy="490.98" r="2.72"/>
        <circle class="cls-56" cx="2288.3" cy="573.07" r="2.74"/>
      </g>
    </g>
  </g>
</svg>